<?xml version="1.0" standalone="no"?>
<!DOCTYPE svg PUBLIC "-//W3C//DTD SVG 20010904//EN"
 "http://www.w3.org/TR/2001/REC-SVG-20010904/DTD/svg10.dtd">
<svg version="1.0" xmlns="http://www.w3.org/2000/svg"
 width="225.000000pt" height="225.000000pt" viewBox="0 0 225.000000 225.000000"
 preserveAspectRatio="xMidYMid meet">
<metadata>
Created by potrace 1.15, written by Peter Selinger 2001-2017
</metadata>
<g transform="translate(0.000000,225.000000) scale(0.100000,-0.100000)"
fill="#000000" stroke="none">
<path d="M0 1125 l0 -1125 1125 0 1125 0 0 1125 0 1125 -1125 0 -1125 0 0
-1125z m1387 534 c158 -58 277 -181 330 -343 37 -116 37 -266 0 -382 -53 -162
-172 -285 -330 -342 -70 -25 -81 -26 -344 -30 l-273 -4 0 406 0 407 143 -3
142 -3 3 -267 2 -268 103 0 c123 0 164 16 223 83 99 112 100 311 1 423 -70 80
-62 78 -417 84 l-315 5 -72 125 c-40 68 -73 128 -73 133 0 5 181 7 403 5 l402
-3 72 -26z"/>
</g>
</svg>
